<svg width="267" height="187" viewBox="0 0 267 187" fill="none" xmlns="http://www.w3.org/2000/svg">
<g clip-path="url(#clip0_313_2810)">
<path d="M250.826 178.474C252.336 178.727 253.916 178.301 254.971 177.189C255.657 176.463 256.124 175.57 256.124 174.712C256.124 174.7 256.124 174.689 256.124 174.677C256.106 168.519 263.675 168.928 266.101 161.398C268.534 153.869 258.931 153.235 253.443 157.884C249.5 161.225 244.768 156.559 239.033 160.453C234.052 163.835 236.825 172.165 228.663 169.561C226.057 168.726 223.723 169.533 221.752 171.007C219.486 172.707 218.005 175.092 217.394 177.684L218.045 178.145C234.145 188.014 241.402 176.901 250.826 178.474Z" fill="#9C78ED"/>
<path d="M234.871 178.145L256.221 164.451C256.51 164.267 256.59 163.886 256.406 163.604C256.221 163.316 255.841 163.236 255.558 163.42L232.6 178.151H234.871V178.145Z" fill="#7846D1"/>
<path d="M233.718 137.399C232.819 123.976 232.669 109.897 233.666 100.564C234.975 88.3681 237.926 79.8822 242.445 75.3368C242.745 75.0373 243.235 75.0315 243.535 75.3311C243.835 75.6306 243.84 76.1203 243.541 76.4199C235.638 84.37 232.796 105.708 235.304 138.183L233.718 137.399Z" fill="#5B23A9"/>
<path d="M235.741 89.7908C235.741 89.7908 229.308 89.7793 229.764 78.4706C229.764 78.4763 239.609 81.2819 235.741 89.7908Z" fill="#7846D1"/>
<path d="M235.2 95.6088C235.2 95.6088 234.854 89.1853 246.175 89.0183C246.175 89.0125 243.915 98.9962 235.2 95.6088Z" fill="#7846D1"/>
<path d="M240.122 79.7491C240.122 79.7491 237.649 73.8096 248.267 69.8749C248.267 69.8749 249.472 80.0372 240.122 79.7491Z" fill="#7846D1"/>
<path d="M233.753 107.275C233.753 107.275 227.695 109.441 224.3 98.6449C224.3 98.6449 234.52 97.9594 233.753 107.275Z" fill="#7846D1"/>
<path d="M234.104 113.289C234.104 113.289 232.652 107.021 243.771 104.901C243.771 104.896 243.275 115.116 234.104 113.289Z" fill="#7846D1"/>
<path d="M233.764 121.562C233.764 121.562 227.746 123.843 224.149 113.11C224.149 113.11 234.352 112.235 233.764 121.562Z" fill="#7846D1"/>
<path d="M47.0151 167.321L45.2628 167.252L44.3348 167.217L41.7005 167.114C41.7005 167.114 17.3525 125.802 32.6046 112.333C37.3024 108.185 45.5107 111.624 43.6949 130.687C42.0118 148.35 47.0151 167.321 47.0151 167.321Z" fill="#7846D1"/>
<path d="M45.2628 167.251L44.3347 167.217C40.0865 157.21 37.9364 146.454 36.8758 138.907C35.6135 129.943 35.55 123.439 35.55 123.376C35.55 123.146 35.7345 122.955 35.9651 122.955C36.1956 122.955 36.3859 123.14 36.3916 123.37C36.3916 123.434 36.4493 129.897 37.7116 138.804C38.778 146.385 40.9454 157.221 45.2628 167.251Z" fill="#5B23A9"/>
<path d="M51.8514 175.593L49.4708 176.475L48.2084 176.941L44.6288 178.266C44.6288 178.266 -10.9325 136.626 1.93327 110.132C5.89328 101.974 18.7821 101.997 26.9846 128.48C34.5876 153.033 51.8514 175.593 51.8514 175.593Z" fill="#9C78ED"/>
<path d="M49.4709 176.48L48.2085 176.947C36.951 165.937 28.0857 152.768 22.454 143.274C15.7675 132.006 12.0611 123.341 12.0266 123.255C11.894 122.944 12.0381 122.586 12.3494 122.46C12.6606 122.327 13.018 122.471 13.1506 122.782C13.1852 122.869 16.8685 131.47 23.5146 142.675C29.1751 152.209 38.1154 165.488 49.4709 176.48Z" fill="#7846D1"/>
<path d="M241.782 177.95C241.753 176.988 241.644 176.02 241.431 175.058C239.43 165.921 244.866 164.193 252.031 161.307C259.196 158.421 260.049 149.848 254.971 142.722C249.898 135.596 259.012 129.869 255.657 119.143C252.302 108.421 240.641 115.553 238.087 125.439C236.254 132.548 226.934 131.01 223.481 140.228C220.484 148.229 230.531 155.621 218.927 159.29C215.221 160.46 213.169 163.306 212.097 166.63C210.863 170.461 211.105 174.436 212.512 177.944H241.782V177.95Z" fill="#7846D1"/>
<path d="M227.585 177.949L246.699 130.784C246.878 130.335 246.664 129.828 246.215 129.649C245.765 129.471 245.258 129.684 245.079 130.133L225.7 177.955H227.585V177.949Z" fill="#5B23A9"/>
<path d="M68.3026 35.3549C68.3026 35.3549 68.7061 26.8633 63.5356 25.2329C55.4887 22.6924 53.2465 26.8633 52.0072 29.6228C50.4162 33.1542 51.0964 40.0846 55.8922 40.7529C63.0629 41.7495 67.8588 37.7284 68.3026 35.3549Z" fill="#403657"/>
<path d="M73.4847 63.7504C77.6695 63.7504 81.2779 60.8238 82.1368 56.7278C82.7535 53.7839 83.3588 51.1742 83.3588 49.7052V49.6649C83.3991 49.204 83.4164 48.7373 83.4222 48.2822C83.4798 41.5823 79.3411 29.346 64.8038 31.2875C64.8038 31.2875 52.7393 32.6643 51.3674 44.4454C51.3674 44.4454 50.7967 49.8838 50.4163 53.8185C50.4105 53.8876 50.4048 53.9568 50.3932 54.0259C49.8629 59.228 53.9555 63.7446 59.1894 63.7446H73.4847V63.7504Z" fill="#403657"/>
<path d="M90.7484 77.7533C90.7484 77.7533 93.3192 98.1067 96.2532 108.557C96.2532 108.557 100.426 106.616 105.885 103.977C111.805 101.12 120.319 95.9003 120.319 95.9003L122.469 101.079C122.469 101.079 100.478 121.819 93.1982 122.994C85.9122 124.169 81.4507 98.1067 81.4507 98.1067L90.7484 77.7533Z" fill="#7846D1"/>
<path d="M119.869 96.5107C119.869 96.5107 119.264 93.6187 120.561 91.66C121.858 89.7012 123.829 86.0373 126.141 85.2768C128.077 84.6374 125.218 87.9038 125.138 89.9778C125.138 89.9778 128.02 89.6148 130.095 88.9408C131.922 88.3474 135.536 87.61 137.214 87.2759C137.675 87.1837 137.969 87.7656 137.617 88.0709C137.046 88.5663 135.847 89.1885 133.38 89.7819C133.38 89.7819 139.404 88.6412 140.027 89.563C140.649 90.4847 133.098 91.7694 133.098 91.7694C133.098 91.7694 138.96 91.4238 139.116 92.3398C139.208 92.8986 133.133 94.1833 133.133 94.1833C133.133 94.1833 138.678 94.333 137.335 95.2087C136.943 95.4622 126.215 96.672 122.48 101.079C122.469 101.085 119.956 98.4867 119.869 96.5107Z" fill="#FFA681"/>
<path d="M53.6733 73.7467C53.6733 73.7467 41.3724 77.3704 30.7778 79.7612C30.7778 79.7612 30.5011 75.1697 30.2245 69.115C29.9247 62.5475 30.4665 52.5868 30.4665 52.5868L24.8868 53.1572C24.8868 53.1572 17.0936 82.3536 19.5261 89.3128C21.9586 96.272 52.8317 86.5245 52.8317 86.5245L53.6733 73.7467Z" fill="#7846D1"/>
<path d="M30.1438 53.2726C30.1438 53.2726 32.9741 52.4258 34.0808 50.3576C35.1875 48.2894 38.2426 44.1242 36.3577 42.5803C35.6717 42.0157 35.1702 44.4757 33.3891 45.5357C33.3891 45.5357 32.3342 42.8338 31.9423 40.685C31.5964 38.7954 30.5243 35.2639 30.017 33.6336C29.8787 33.1842 29.2273 33.2015 29.1293 33.6566C28.9679 34.394 28.9852 35.7421 29.6366 38.1962C29.6366 38.1962 27.7747 32.3604 26.668 32.251C25.5613 32.1415 28.0226 39.3945 28.0226 39.3945C28.0226 39.3945 25.5382 34.0772 24.6563 34.3767C24.1202 34.5668 25.8841 40.5121 25.8841 40.5121C25.8841 40.5121 23.1173 35.7075 22.9847 37.3033C22.9443 37.7699 26.9908 47.7767 24.8869 53.1574C24.8811 53.1574 28.3627 54.131 30.1438 53.2726Z" fill="#FFA681"/>
<path d="M90.2875 156.617L90.3854 157.049C80.8053 163.53 44.9807 159.106 44.9807 159.106C45.0441 158.357 45.1248 157.568 45.2286 156.755C45.3381 155.851 45.4764 154.912 45.6378 153.944C46.0701 151.34 46.6523 148.517 47.3037 145.619C47.5112 144.709 47.7245 143.782 47.9435 142.848C48.5891 140.077 49.2808 137.272 49.9322 134.541C50.157 133.602 50.376 132.675 50.5951 131.753C50.8948 130.474 51.1772 129.212 51.4482 127.997C51.7998 126.372 52.1168 124.817 52.382 123.348C52.5607 122.357 52.7163 121.412 52.8316 120.513C52.9699 119.563 53.0621 118.664 53.1198 117.829C52.5491 115.726 52.0188 113.663 51.5231 111.664C51.2752 110.645 51.0331 109.654 50.7968 108.669C50.059 105.517 49.4134 102.522 48.8485 99.7162C48.6468 98.6965 48.4508 97.7056 48.2721 96.7378C47.6438 93.4252 47.1423 90.4296 46.733 87.8199C46.5774 86.7771 46.4275 85.8035 46.3007 84.8875C46.1566 83.8851 46.0356 82.9576 45.926 82.1108C45.4476 78.4065 45.2805 76.3037 45.2805 76.3037C45.3669 76.2346 45.4534 76.1712 45.5456 76.1079C46.635 75.3359 48.3297 74.61 50.2204 73.9648C52.2148 73.2792 54.4167 72.6859 56.3593 72.2192C56.6532 72.1501 56.9415 72.081 57.2239 72.0118C59.7775 71.4127 61.6854 71.067 61.6854 71.067C70.3721 72.8875 72.8507 71.718 72.8507 71.718L77.2661 73.02L77.7849 73.2044L81.0013 74.3335L81.1339 74.3796L86.9039 76.4074L90.7544 77.7555L89.2614 84.6398L88.6101 87.647L86.6445 96.7147L85.9989 99.7104L84.039 108.744L83.3934 111.71L81.7737 119.194L82.0965 120.623L82.7306 123.399L83.7335 127.812L84.6443 131.805L85.2726 134.57L87.1632 142.889L87.7915 145.637L89.6649 153.863L90.2875 156.617Z" fill="#9C78ED"/>
<path d="M77.7791 73.1987C76.8568 78.6255 74.2226 84.0869 68.7466 84.6745C62.135 85.3888 58.7053 77.0989 57.2124 72.0062C59.7659 71.407 62.4117 70.8252 62.4117 70.8252C71.0984 72.6457 72.7758 71.5338 72.7758 71.5338L77.2546 73.0086L77.7791 73.1987Z" fill="#FFA681"/>
<path d="M68.0723 80.1173C61.1437 80.1173 59.4836 71.5623 59.4663 71.4759C59.4318 71.2915 59.5528 71.113 59.743 71.0784C59.9275 71.0438 60.1062 71.1648 60.1408 71.3492C60.2042 71.6948 61.7778 79.7659 68.4758 79.4202C74.338 79.1264 74.6839 72.6223 74.6954 72.3458C74.7012 72.1557 74.8626 72.0117 75.0528 72.0174C75.243 72.0232 75.3871 72.1845 75.3813 72.3746C75.3756 72.4495 75.0009 79.7774 68.5162 80.1058C68.3605 80.1115 68.2164 80.1173 68.0723 80.1173Z" fill="white"/>
<path d="M55.6388 77.7555C55.6388 78.6888 54.8837 79.4435 53.9499 79.4435C53.0161 79.4435 52.261 78.6888 52.261 77.7555C52.261 76.8223 53.0161 76.0676 53.9499 76.0676C54.8837 76.0676 55.6388 76.8223 55.6388 77.7555Z" fill="#7846D1"/>
<path d="M52.2553 86.0056C52.2553 86.9388 51.5002 87.6935 50.5664 87.6935C49.6326 87.6935 48.8774 86.9388 48.8774 86.0056C48.8774 85.0723 49.6326 84.3176 50.5664 84.3176C51.4944 84.3176 52.2553 85.0723 52.2553 86.0056Z" fill="#7846D1"/>
<path d="M63.0517 89.9055C63.0517 90.8388 62.2965 91.5935 61.3627 91.5935C60.4289 91.5935 59.6738 90.8388 59.6738 89.9055C59.6738 88.9722 60.4289 88.2175 61.3627 88.2175C62.2965 88.2175 63.0517 88.9722 63.0517 89.9055Z" fill="#7846D1"/>
<path d="M55.5178 94.5199C55.8637 95.3898 55.4429 96.3691 54.5725 96.7148C53.7021 97.0604 52.7222 96.6399 52.3763 95.77C52.0305 94.9001 52.4512 93.9207 53.3216 93.5751C54.192 93.2294 55.172 93.65 55.5178 94.5199Z" fill="#7846D1"/>
<path d="M70.1819 97.6425C70.1819 98.5757 69.4268 99.3362 68.493 99.3362C67.5592 99.3362 66.7983 98.5815 66.7983 97.6425C66.7983 96.7092 67.5535 95.9545 68.493 95.9545C69.4268 95.9487 70.1819 96.7092 70.1819 97.6425Z" fill="#7846D1"/>
<path d="M80.9726 101.128C80.9726 102.061 80.2174 102.816 79.2836 102.816C78.3498 102.816 77.5947 102.061 77.5947 101.128C77.5947 100.195 78.3498 99.4402 79.2836 99.4402C80.2174 99.4344 80.9726 100.189 80.9726 101.128Z" fill="#7846D1"/>
<path d="M83.1457 79.4493C83.1457 80.3826 82.3905 81.1431 81.4567 81.1431C80.5229 81.1431 79.7678 80.3884 79.7678 79.4493C79.7678 78.5161 80.5229 77.7614 81.4567 77.7614C82.3905 77.7614 83.1457 78.5161 83.1457 79.4493Z" fill="#7846D1"/>
<path d="M70.8677 108.439C70.8677 109.372 70.1126 110.126 69.173 110.126C68.2392 110.126 67.4841 109.372 67.4841 108.439C67.4841 107.505 68.2392 106.751 69.173 106.751C70.1126 106.745 70.8677 107.505 70.8677 108.439Z" fill="#7846D1"/>
<path d="M60.4462 113.681C60.4462 114.614 59.6911 115.369 58.7573 115.369C57.8235 115.369 57.0684 114.614 57.0684 113.681C57.0684 112.748 57.8235 111.993 58.7573 111.993C59.6911 111.987 60.4462 112.748 60.4462 113.681Z" fill="#7846D1"/>
<path d="M59.2355 104.135C59.2355 105.068 58.4804 105.823 57.5466 105.823C56.6128 105.823 55.8577 105.068 55.8577 104.135C55.8577 103.202 56.6128 102.441 57.5466 102.441C58.4746 102.441 59.2355 103.202 59.2355 104.135Z" fill="#7846D1"/>
<path d="M75.9 90.3492C75.9 91.2825 75.1449 92.0372 74.2111 92.0372C73.2773 92.0372 72.5222 91.2825 72.5222 90.3492C72.5222 89.4159 73.2773 88.6613 74.2111 88.6613C75.1392 88.6555 75.9 89.4159 75.9 90.3492Z" fill="#7846D1"/>
<path d="M85.2497 88.2175C85.2497 89.1507 84.4945 89.9054 83.5607 89.9054C82.6269 89.9054 81.8718 89.1507 81.8718 88.2175C81.8718 87.2842 82.6269 86.5295 83.5607 86.5295C84.4945 86.5237 85.2497 87.2842 85.2497 88.2175Z" fill="#7846D1"/>
<path d="M79.2836 111.232C79.2836 112.165 78.5285 112.92 77.5947 112.92C76.6609 112.92 75.9058 112.165 75.9058 111.232C75.9058 110.299 76.6609 109.544 77.5947 109.544C78.5227 109.544 79.2836 110.299 79.2836 111.232Z" fill="#7846D1"/>
<path d="M79.7389 124.609C79.7389 125.543 78.9838 126.297 78.05 126.297C77.1162 126.297 76.3611 125.543 76.3611 124.609C76.3611 123.676 77.1162 122.921 78.05 122.921C78.978 122.921 79.7389 123.676 79.7389 124.609Z" fill="#7846D1"/>
<path d="M71.1272 119.033C71.473 119.903 71.0522 120.882 70.1818 121.228C69.3115 121.574 68.3315 121.153 67.9857 120.283C67.6398 119.413 68.0606 118.434 68.931 118.088C69.7956 117.743 70.7813 118.163 71.1272 119.033Z" fill="#7846D1"/>
<path d="M59.6103 123.987C59.9562 124.857 59.5354 125.836 58.665 126.182C57.7946 126.528 56.8147 126.107 56.4688 125.237C56.123 124.367 56.5438 123.388 57.4142 123.042C58.2788 122.697 59.2645 123.117 59.6103 123.987Z" fill="#7846D1"/>
<path d="M93.8728 177.938L93.5212 175.83L92.155 167.661L91.6881 164.861L90.3854 157.049L88.0163 157.158L56.6071 158.581L44.9807 159.106L44.2313 165.183L43.8797 168.012L42.8479 176.4L42.6577 177.938H93.8728Z" fill="#9C78ED"/>
<path d="M93.867 177.937L93.5442 176.036L93.5154 175.834L93.2906 174.486L93.0658 173.155L92.1435 167.653L91.8784 166.029L91.6766 164.859L91.6478 164.686L90.4604 157.56L90.3797 157.053L90.2759 156.615L90.1837 156.229L89.6534 153.873L88.5985 149.264L88.293 147.945L87.7742 145.641L87.1459 142.881L86.7194 140.992L86.4139 139.672L85.2553 134.574L84.8287 132.708L84.627 131.803L84.5347 131.388L83.722 127.805C70.9543 131.573 57.4314 129.337 51.4309 127.989C51.1657 129.199 50.8717 130.467 50.5777 131.745C50.5086 132.028 50.4452 132.304 50.376 132.587C50.2722 133.024 50.1627 133.468 50.059 133.906C50.0186 134.119 49.9667 134.321 49.9149 134.534C49.4191 136.625 48.9004 138.756 48.3931 140.871C48.2894 141.309 48.1914 141.752 48.0876 142.178C48.0357 142.403 47.9838 142.616 47.9262 142.847C47.7129 143.78 47.4997 144.713 47.2864 145.618C47.0212 146.828 46.7676 148.014 46.5255 149.19C46.4333 149.627 46.341 150.054 46.2603 150.48C46.0183 151.667 45.805 152.825 45.6205 153.942C45.4591 154.916 45.3265 155.849 45.2228 156.765C45.1824 157.047 45.1536 157.324 45.1133 157.589C45.0729 158.044 45.021 158.482 44.9807 158.92C44.9807 158.989 44.9692 159.041 44.9692 159.104L44.2256 165.176L44.1045 166.121L43.9431 167.44L43.874 167.999L43.0497 174.647L42.8883 175.978L42.8364 176.404L42.6577 177.937H93.867Z" fill="#403657"/>
<path d="M78.4191 50.4815C78.4191 50.4815 80.4943 47.8545 82.0391 50.0264C83.5839 52.1982 81.3992 58.6217 77.6179 57.0547L78.4191 50.4815Z" fill="#F97853"/>
<path d="M78.448 55.0733C78.5863 55.0733 78.7132 54.9869 78.7535 54.8544C79.3415 52.8727 81.503 52.0661 81.5261 52.0604C81.6933 52.0028 81.774 51.8242 81.7105 51.6686C81.6471 51.5131 81.4627 51.4324 81.3013 51.49C81.1975 51.5246 78.8169 52.406 78.1425 54.6873C78.0964 54.8487 78.1944 55.0157 78.3615 55.0618C78.3904 55.0676 78.4192 55.0733 78.448 55.0733Z" fill="#EA5143"/>
<path d="M80.6324 54.0708C80.69 54.0708 80.7534 54.0535 80.8053 54.0247C80.9552 53.9325 80.9956 53.7482 80.9033 53.6041C80.886 53.5811 80.5056 53.028 79.7044 52.6881C79.543 52.619 79.3527 52.6881 79.2836 52.8437C79.2086 52.9992 79.2836 53.1778 79.445 53.247C80.0617 53.512 80.3672 53.9383 80.3672 53.9383C80.4249 54.0247 80.5229 54.0708 80.6324 54.0708Z" fill="#EA5143"/>
<path d="M77.4853 57.0141C77.1279 57.4116 76.9089 57.9358 76.9089 58.5119C76.9089 59.7505 77.9176 60.7645 79.1627 60.7645C80.402 60.7645 81.4165 59.7563 81.4165 58.5119C81.4165 57.7976 81.0822 57.1581 80.5576 56.7491C80.2982 56.5417 79.987 56.3919 79.6526 56.317C79.595 56.1672 79.6238 56.0232 79.7333 55.8907C80.1657 55.9829 80.5576 56.1788 80.8804 56.4553C81.4741 56.945 81.8488 57.6881 81.8488 58.5119C81.8488 59.9925 80.6441 61.1965 79.1627 61.1965C77.6813 61.1965 76.4766 59.9925 76.4766 58.5119C76.4766 57.8725 76.7014 57.2906 77.076 56.8297C77.2144 56.8873 77.347 56.9507 77.4853 57.0141Z" fill="white"/>
<path d="M62.4119 63.9158V71.7967C62.4119 71.7967 66.0779 74.6196 68.9312 74.8673C71.7845 75.115 72.7759 71.7506 72.7759 71.7506V64.417L62.4119 63.9158Z" fill="#FFA681"/>
<path d="M62.4119 64.6879V67.8334C64.3313 69.9592 67.7322 70.7138 72.7759 69.9707V65.1891L62.4119 64.6879Z" fill="#F97853"/>
<path d="M79.6698 53.477C79.5776 54.2375 79.4738 55.0094 79.3355 55.7814C78.4305 60.9029 75.1853 66.4391 71.0927 67.3667C62.2504 69.3715 58.5786 62.4295 57.1663 57.3138C57.0107 56.7435 57.3047 56.0925 57.1778 55.4185C56.8839 53.8227 56.2383 52.008 56.0942 50.2221C55.9904 48.9835 55.9212 47.7622 55.8694 46.6561C55.7253 43.5452 57.5295 40.682 60.3482 39.5644C64.4119 37.9513 70.5854 36.6724 76.4303 40.0944C78.5919 41.3618 79.9465 43.7007 79.9926 46.2701C80.033 48.2346 79.9811 50.7924 79.6698 53.477Z" fill="#FFA681"/>
<path d="M68.4584 57.4404C68.2912 57.4404 68.1471 57.3194 68.1183 57.1524C68.0894 56.968 68.2105 56.7894 68.4007 56.7548L69.5824 56.559L67.9569 52.2325C67.8877 52.0539 67.9799 51.8581 68.1586 51.7889C68.3373 51.7256 68.5333 51.812 68.6025 51.9906L70.5219 57.0947L68.5218 57.4289C68.4929 57.4404 68.4757 57.4404 68.4584 57.4404Z" fill="#F97853"/>
<path d="M72.6895 51.7201C72.6895 52.4748 73.0814 53.0912 73.5599 53.0912C74.0383 53.0912 74.4302 52.4805 74.4302 51.7201C74.4302 50.9596 74.0383 50.349 73.5599 50.349C73.0757 50.349 72.6895 50.9596 72.6895 51.7201Z" fill="#403657"/>
<path d="M63.0632 51.7201C63.0632 52.4748 63.4552 53.0912 63.9336 53.0912C64.4121 53.0912 64.804 52.4805 64.804 51.7201C64.804 50.9596 64.4121 50.349 63.9336 50.349C63.4494 50.349 63.0632 50.9596 63.0632 51.7201Z" fill="#403657"/>
<path d="M76.1192 48.1249C75.4217 47.9867 74.0037 47.762 72.4935 47.8138C72.0958 47.8254 71.7787 48.1249 71.8364 48.4418V48.4475C71.8825 48.701 72.1476 48.8681 72.4647 48.845C73.4907 48.7702 76.1826 48.7817 77.4334 49.1561C77.468 48.9775 77.347 48.7817 77.1683 48.6146C76.9031 48.3669 76.5285 48.2056 76.1192 48.1249Z" fill="#403657"/>
<path d="M62.1177 48.2925C62.8152 48.1485 64.2274 47.9008 65.7376 47.9353C66.1353 47.9411 66.4581 48.2407 66.4063 48.5575V48.5633C66.3659 48.8167 66.1008 48.9896 65.778 48.9723C64.7462 48.9089 62.06 48.9608 60.815 49.3525C60.7804 49.1739 60.8957 48.9781 61.0686 48.8052C61.3338 48.546 61.7084 48.3789 62.1177 48.2925Z" fill="#403657"/>
<path d="M72.6895 59.4855C72.4359 60.6896 71.5885 62.9018 68.741 62.9018C65.882 62.9018 65.0807 60.8797 64.8098 59.4855H72.6895Z" fill="white"/>
<path d="M68.7755 64.9706C69.5998 64.9706 70.3261 64.527 70.3549 64.5097C70.5106 64.4118 70.5624 64.2044 70.4644 64.0488C70.3664 63.8933 70.1589 63.8414 70.0033 63.9394C69.9975 63.9451 69.4038 64.3023 68.7755 64.3023C68.0953 64.3023 67.4901 63.9451 67.4843 63.9394C67.3229 63.8414 67.1154 63.8933 67.0232 64.0546C66.9252 64.2159 66.9771 64.4175 67.1385 64.5155C67.1673 64.527 67.9051 64.9706 68.7755 64.9706Z" fill="#F97853"/>
<path d="M80.0272 52.6706C79.9465 52.7397 79.8658 52.7167 79.7909 52.5784C78.6208 50.5217 79.7217 46.4142 76.2632 44.8415C73.629 43.6432 72.6836 41.1775 72.6836 41.1775C72.0841 42.2087 70.5163 43.1535 70.5163 43.1535C70.5163 43.1535 66.539 45.5097 62.4118 47.0998C61.184 47.5722 60.3078 48.0503 59.6968 48.4651C59.743 48.4766 59.7718 48.4881 59.7718 48.4881C59.7718 48.4881 58.6305 50.3432 59.4663 53.2294C60.3021 56.1156 59.2242 60.8742 57.3681 61.9745C57.4027 61.8938 58.7976 58.6043 58.0079 55.914C57.5526 54.3758 57.5583 51.9217 57.126 50.4584C56.6476 50.13 55.5466 49.577 55.1777 49.358C55.0739 48.0964 54.9932 46.852 54.9414 45.7229C54.7915 42.5486 56.6937 39.6336 59.6623 38.4929C63.9451 36.8453 70.4529 35.5433 76.6148 39.0344C78.8917 40.3249 80.3212 42.7099 80.3731 45.3254C80.4077 47.3244 80.3558 49.9341 80.0272 52.6706Z" fill="#403657"/>
<path d="M57.1261 50.4598C57.1261 50.4598 54.7109 47.5332 53.2871 49.6417C51.8634 51.756 53.9673 58.2255 57.4546 56.7046L57.1261 50.4598Z" fill="#FFA681"/>
<path d="M57.2242 56.8074C57.4721 57.2798 57.5585 57.8386 57.4202 58.3974C57.1205 59.6014 55.8927 60.3331 54.688 60.0335C53.4832 59.7339 52.7512 58.5069 53.0509 57.3028C53.2238 56.6115 53.7023 56.0757 54.3075 55.7992C54.613 55.661 54.9473 55.5918 55.2932 55.5976C55.3508 55.4708 55.3854 55.3268 55.3163 55.1655C54.8782 55.154 54.4459 55.2462 54.0654 55.4305C53.3737 55.7646 52.8261 56.3926 52.6301 57.1934C52.2727 58.6278 53.1489 60.0854 54.5842 60.4483C56.0195 60.8055 57.4778 59.9298 57.841 58.4953C57.9966 57.8789 57.9159 57.2567 57.6681 56.721C57.5182 56.7555 57.3683 56.7843 57.2242 56.8074Z" fill="white"/>
<path d="M56.6015 54.5445C56.4747 54.5445 56.3536 54.4581 56.319 54.3314C55.7772 52.4072 53.7828 51.6237 53.7597 51.618C53.6099 51.5603 53.5292 51.3875 53.5868 51.2377C53.6445 51.0879 53.8116 51.0073 53.9672 51.0649C54.0595 51.0995 56.2614 51.9521 56.8839 54.17C56.9301 54.3256 56.8378 54.4869 56.6822 54.533C56.6534 54.5387 56.6303 54.5445 56.6015 54.5445Z" fill="#F97853"/>
<path d="M54.59 53.5698C54.5381 53.5698 54.4805 53.5525 54.4286 53.5237C54.2903 53.4373 54.2499 53.2529 54.3422 53.1146C54.3595 53.0916 54.7111 52.5558 55.4489 52.2217C55.5988 52.1526 55.7717 52.2217 55.8409 52.3715C55.91 52.5213 55.8409 52.6941 55.691 52.7632C55.1203 53.0167 54.8437 53.4315 54.8379 53.4373C54.7802 53.5237 54.688 53.5698 54.59 53.5698Z" fill="#F97853"/>
<path d="M185.022 114.043C179.402 118.075 170.612 120.841 170.612 120.841L168.813 114.371L167.407 109.324L166.415 105.764L156.339 105.758C156.887 107.648 157.446 109.572 158.017 111.473C158.743 113.922 159.469 116.318 160.155 118.53C161.129 121.641 162.023 124.378 162.749 126.336C162.916 126.792 163.112 127.287 163.337 127.817C164.686 131.452 165.77 135.398 170.911 132.921C175.436 130.744 181.575 127.725 184.642 125.72L185.022 114.043Z" fill="#FFA681"/>
<path d="M158.017 111.467C158.743 113.916 159.469 116.312 160.161 118.524C164.271 118.086 167.119 116.053 168.813 114.365L167.407 109.318L158.017 111.467Z" fill="#F97853"/>
<path d="M155.878 76.1523C155.878 76.1523 166.392 101.207 170.912 109.324C170.912 109.324 164.577 114.704 158.403 114.854C158.403 114.854 154.847 87.3458 155.878 76.1523Z" fill="#6020BD"/>
<path d="M131.271 177.953C131.374 176.202 131.478 174.531 131.565 172.982C131.939 166.656 132.176 162.341 132.176 162.341L129.697 162.232L128.302 162.168L111.453 161.419C111.453 161.419 111.148 166.247 110.785 173.339C110.71 174.791 110.635 176.335 110.56 177.953H131.271Z" fill="#9C78ED"/>
<path d="M129.697 162.233L132.176 162.342C132.176 162.342 131.934 166.657 131.565 172.983C125.092 173.524 118.025 173.743 110.785 173.34C111.148 166.248 111.454 161.421 111.454 161.421L128.302 162.169L129.697 162.233Z" fill="#7846D1"/>
<path d="M128.815 177.955C129.207 171.198 129.524 165.414 129.703 162.234L128.308 162.17C128.135 165.362 127.812 171.175 127.42 177.955H128.815Z" fill="#7846D1"/>
<path d="M136.701 177.953H157.411C157.337 176.335 157.256 174.791 157.187 173.339C156.824 166.247 156.518 161.419 156.518 161.419L139.669 162.168L138.274 162.232L135.796 162.341C135.796 162.341 136.038 166.656 136.407 172.982C136.493 174.531 136.591 176.202 136.701 177.953Z" fill="#9C78ED"/>
<path d="M138.269 162.233L135.79 162.342C135.79 162.342 136.032 166.657 136.401 172.983C142.874 173.524 149.941 173.743 157.181 173.34C156.818 166.248 156.512 161.421 156.512 161.421L139.664 162.169L138.269 162.233Z" fill="#7846D1"/>
<path d="M140.551 177.955C140.159 171.175 139.836 165.362 139.663 162.17L138.269 162.234C138.441 165.414 138.764 171.198 139.156 177.955H140.551Z" fill="#7846D1"/>
<path d="M107.799 149.418C107.799 149.764 107.799 150.109 107.799 150.443C107.805 156.602 107.839 161.372 107.868 163.717C113.817 165.33 119.771 166.367 125.726 166.85C125.997 166.874 126.262 166.891 126.533 166.914C126.677 166.925 126.821 166.937 126.965 166.943C127.282 166.966 127.605 166.983 127.922 167C128.279 167.023 128.631 167.041 128.988 167.058C133.041 167.248 137.087 167.173 141.139 166.839C141.958 166.77 142.771 166.695 143.589 166.603C143.641 166.597 143.693 166.591 143.745 166.585C143.952 166.562 144.16 166.539 144.373 166.511C144.5 166.493 144.627 166.482 144.753 166.464C149.463 165.9 154.178 164.984 158.893 163.711C158.905 162.645 158.91 161.066 158.91 159.079C158.91 158.71 158.91 158.33 158.91 157.933C158.91 155.087 158.887 151.544 158.859 147.546C158.859 147.206 158.853 146.86 158.853 146.509C158.83 143.841 158.801 140.99 158.766 138.011C158.761 137.666 158.761 137.32 158.755 136.974C158.714 133.921 158.668 130.752 158.616 127.532C158.582 125.568 158.547 123.58 158.507 121.598C158.467 119.588 158.42 117.571 158.374 115.572C158.363 115.135 158.351 114.702 158.34 114.265C157.879 95.34 157.077 77.9419 155.757 76.0005C154.841 74.6582 152.748 73.0797 150.276 71.4897C149.976 71.2996 149.665 71.1037 149.353 70.9078C148.304 70.2511 139.721 67.336 138.632 66.6966L129.565 66.0629C129.507 66.0974 120.838 69.0182 120.78 69.047C120.405 69.2602 120.031 69.4733 119.656 69.6923C116.445 71.5415 113.275 73.4945 111.454 75.1767C111.188 75.4186 110.946 75.6606 110.745 75.891C110.583 76.0754 110.439 76.254 110.324 76.4325C110.214 76.5939 110.111 76.8589 110.007 77.2276C108.912 81.2141 108.335 96.8724 108.047 113.913C108.024 115.135 108.007 116.362 107.989 117.594C107.984 118.136 107.972 118.677 107.966 119.219C107.96 119.593 107.955 119.968 107.949 120.337C107.949 120.527 107.943 120.711 107.943 120.895C107.932 121.823 107.92 122.745 107.914 123.666C107.909 124.346 107.897 125.026 107.891 125.706C107.816 134.29 107.788 142.626 107.799 149.418Z" fill="#7846D1"/>
<path d="M91.5786 173.755C91.3538 176.175 94.305 174.861 93.4692 169.959C92.6392 165.056 95.0025 160.62 96.017 160.759C97.0373 160.903 95.1754 166.111 96.0804 167.989C96.9854 169.867 98.1555 166.22 99.3199 164.008C100.53 161.709 100.455 156.697 99.9079 153.12C99.3603 149.542 105.845 127.806 105.88 121.509L106.669 118.842L109.563 109.066L114.094 93.759C114.094 93.759 111.379 82.1737 106.802 83.1704C106.802 83.1704 104.381 91.2414 101.787 100.344C101.349 101.888 100.905 103.466 100.467 105.033C98.6224 111.629 96.8874 118.145 96.0804 122.011C93.9534 132.219 93.7863 153.431 93.7863 153.431C93.7863 153.431 90.028 161.225 89.9415 164.693C89.8551 168.392 91.7976 171.336 91.5786 173.755Z" fill="#FFA681"/>
<path d="M100.473 105.027L106.675 118.836L109.569 109.06L101.793 100.332C101.355 101.881 100.917 103.46 100.473 105.027Z" fill="#F97853"/>
<path d="M100.167 100.914C102.888 105.575 105.655 110.212 108.41 114.856C109.315 111.82 110.26 108.905 111.142 106.22C111.142 106.214 111.148 106.208 111.148 106.197C111.5 105.125 111.846 104.094 112.174 103.103C112.18 103.086 112.186 103.069 112.191 103.051C112.307 102.706 112.416 102.36 112.531 102.026C113.846 98.0509 114.866 94.8939 115.16 93.0504C115.944 88.0903 113.805 78.3831 110.785 76.4647C110.704 76.6375 110.468 76.1018 110.324 76.4301C109.793 77.6515 107.442 80.6759 106.277 83.6198C106.127 83.9942 105.978 84.386 105.816 84.7835C104.133 89.1215 102.075 94.7499 100.167 100.914Z" fill="#7846D1"/>
<path d="M133.697 75.1322C137.623 75.1322 140.395 71.5489 140.511 71.3991C140.678 71.1802 140.643 70.8633 140.441 70.6847C140.24 70.5061 139.94 70.5407 139.773 70.7596C139.738 70.8057 137.162 74.1182 133.697 74.1182C130.273 74.1182 128.187 70.3679 128.169 70.3333C128.037 70.0913 127.749 70.0107 127.524 70.149C127.299 70.2872 127.218 70.5983 127.351 70.8403C127.443 71.0131 129.726 75.1322 133.697 75.1322Z" fill="#6020BD"/>
<path d="M150.304 109.446C150.379 109.446 150.448 109.429 150.517 109.388C150.754 109.262 150.846 108.956 150.731 108.703L149.019 105.085C148.898 104.832 148.61 104.734 148.379 104.86C148.143 104.987 148.05 105.292 148.166 105.546L149.878 109.164C149.964 109.342 150.131 109.446 150.304 109.446Z" fill="#6020BD"/>
<path d="M153.872 106.479C153.936 106.519 154.005 106.548 154.08 106.554C154.345 106.577 154.576 106.369 154.599 106.087L154.933 102.049C154.956 101.766 154.76 101.519 154.501 101.496C154.235 101.473 154.005 101.68 153.982 101.962L153.647 106.001C153.636 106.202 153.728 106.381 153.872 106.479Z" fill="#6020BD"/>
<path d="M144.672 100.217C144.903 100.217 145.105 100.038 145.145 99.7903L145.762 95.7922C145.802 95.5157 145.629 95.2507 145.37 95.2046C145.111 95.1585 144.863 95.3486 144.822 95.6252L144.206 99.6232C144.165 99.8998 144.338 100.165 144.598 100.211C144.621 100.217 144.644 100.217 144.672 100.217Z" fill="#6020BD"/>
<path d="M129.288 101.708C129.368 101.708 129.455 101.685 129.53 101.639C129.755 101.495 129.83 101.184 129.697 100.942L127.766 97.4508C127.633 97.2089 127.339 97.1282 127.109 97.2722C126.884 97.4163 126.809 97.7274 126.942 97.9693L128.873 101.46C128.965 101.616 129.121 101.708 129.288 101.708Z" fill="#6020BD"/>
<path d="M148.189 86.073C148.275 86.073 148.367 86.0442 148.448 85.9923L151.636 83.7917C151.855 83.6361 151.918 83.325 151.78 83.0831C151.636 82.8469 151.342 82.7777 151.117 82.9333L147.929 85.134C147.71 85.2895 147.647 85.6006 147.785 85.8426C147.878 85.9866 148.033 86.073 148.189 86.073Z" fill="#6020BD"/>
<path d="M134.003 118.571C134.078 118.571 134.147 118.554 134.216 118.514C134.452 118.387 134.545 118.082 134.429 117.828L132.717 114.21C132.596 113.957 132.314 113.859 132.077 113.986C131.841 114.112 131.749 114.418 131.864 114.671L133.576 118.289C133.657 118.468 133.824 118.571 134.003 118.571Z" fill="#6020BD"/>
<path d="M141.525 88.7926C141.686 88.7926 141.842 88.7062 141.929 88.5506C142.067 88.3087 142.003 87.9976 141.779 87.8478L138.562 85.699C138.337 85.5492 138.043 85.6241 137.905 85.8603C137.767 86.1022 137.83 86.4133 138.055 86.5631L141.271 88.712C141.352 88.7696 141.439 88.7926 141.525 88.7926Z" fill="#6020BD"/>
<path d="M149.169 73.7514C149.163 73.8493 149.18 73.9472 149.221 74.0279C149.296 74.1777 149.44 74.2814 149.607 74.2987C149.872 74.3217 150.097 74.1085 150.114 73.8263L150.264 71.4988C149.964 71.3087 149.659 71.1129 149.342 70.917L149.169 73.7514Z" fill="#6020BD"/>
<path d="M153.457 95.9486C153.619 95.9486 153.774 95.8622 153.861 95.7067C153.999 95.4647 153.936 95.1536 153.711 95.0038L150.494 92.855C150.27 92.7052 149.976 92.7801 149.837 93.0163C149.699 93.2583 149.762 93.5693 149.987 93.7191L153.204 95.868C153.284 95.9198 153.371 95.9486 153.457 95.9486Z" fill="#6020BD"/>
<path d="M127.818 78.296C127.91 78.296 127.997 78.2672 128.083 78.2096C128.302 78.0541 128.366 77.7372 128.222 77.501L126.389 74.5284C126.245 74.2922 125.945 74.2288 125.726 74.3844C125.507 74.5399 125.443 74.8568 125.587 75.093L127.42 78.0656C127.513 78.2154 127.663 78.296 127.818 78.296Z" fill="#6020BD"/>
<path d="M126.175 129.666C126.302 129.666 126.429 129.615 126.521 129.511L129.149 126.584C129.334 126.383 129.328 126.06 129.138 125.864C128.948 125.668 128.642 125.674 128.463 125.882L125.835 128.808C125.651 129.01 125.656 129.332 125.847 129.528C125.939 129.615 126.06 129.666 126.175 129.666Z" fill="#6020BD"/>
<path d="M135.83 129.056C135.957 129.056 136.084 129.004 136.176 128.9L138.804 125.973C138.989 125.772 138.983 125.449 138.793 125.253C138.603 125.058 138.303 125.063 138.119 125.271L135.49 128.197C135.306 128.399 135.311 128.721 135.502 128.917C135.588 129.01 135.709 129.056 135.83 129.056Z" fill="#6020BD"/>
<path d="M142.771 148.822C142.817 148.695 142.811 148.551 142.753 148.425L141.116 144.766C141.001 144.513 140.718 144.403 140.476 144.524C140.24 144.645 140.136 144.951 140.252 145.204L141.889 148.862C142.004 149.116 142.286 149.225 142.528 149.104C142.644 149.047 142.724 148.943 142.771 148.822Z" fill="#6020BD"/>
<path d="M115.068 160.884C115.114 160.758 115.108 160.614 115.05 160.487L113.413 156.829C113.298 156.575 113.016 156.466 112.773 156.587C112.537 156.708 112.433 157.013 112.549 157.267L114.186 160.925C114.301 161.178 114.583 161.288 114.826 161.167C114.947 161.109 115.027 161.005 115.068 160.884Z" fill="#6020BD"/>
<path d="M126.965 166.94C127.288 166.963 127.605 166.98 127.922 166.997L128.256 164.722C128.296 164.445 128.118 164.18 127.858 164.14C127.599 164.099 127.351 164.29 127.311 164.566L126.965 166.94Z" fill="#6020BD"/>
<path d="M123.149 160.061C123.253 159.986 123.328 159.865 123.345 159.721L123.933 155.717C123.973 155.441 123.794 155.176 123.535 155.135C123.276 155.089 123.028 155.279 122.987 155.562L122.399 159.566C122.359 159.842 122.538 160.107 122.797 160.147C122.93 160.165 123.051 160.13 123.149 160.061Z" fill="#6020BD"/>
<path d="M146.211 126.567C146.292 126.567 146.373 126.544 146.448 126.498C146.678 126.354 146.753 126.043 146.621 125.801L144.718 122.293C144.586 122.051 144.292 121.964 144.067 122.108C143.837 122.247 143.762 122.564 143.894 122.806L145.796 126.314C145.883 126.475 146.044 126.567 146.211 126.567Z" fill="#6020BD"/>
<path d="M140.632 117.799C140.805 117.799 140.972 117.701 141.058 117.523L142.799 113.922C142.92 113.669 142.828 113.363 142.591 113.236C142.355 113.104 142.067 113.208 141.946 113.455L140.205 117.056C140.084 117.309 140.176 117.615 140.413 117.742C140.482 117.782 140.557 117.799 140.632 117.799Z" fill="#6020BD"/>
<path d="M155.74 117.27C155.792 117.334 155.855 117.38 155.919 117.414C156.08 117.484 156.27 117.461 156.414 117.334L158.368 115.577C158.357 115.139 158.351 114.707 158.34 114.269L155.797 116.55C155.596 116.735 155.573 117.051 155.74 117.27Z" fill="#6020BD"/>
<path d="M140.655 79.5747C140.828 79.5747 140.995 79.4767 141.081 79.2981L142.822 75.6976C142.943 75.4441 142.851 75.1387 142.614 75.012C142.378 74.8853 142.09 74.9832 141.969 75.2309L140.228 78.8315C140.107 79.085 140.199 79.3903 140.436 79.5171C140.505 79.5574 140.58 79.5747 140.655 79.5747Z" fill="#6020BD"/>
<path d="M129.512 92.7733C129.541 92.7733 129.57 92.7675 129.605 92.7618C129.864 92.7099 130.031 92.4391 129.985 92.1626L129.265 88.1818C129.213 87.9053 128.965 87.7209 128.705 87.7785C128.446 87.8304 128.279 88.1012 128.325 88.3777L129.046 92.3585C129.086 92.6062 129.288 92.7733 129.512 92.7733Z" fill="#6020BD"/>
<path d="M135.715 96.2695C135.744 96.2695 135.772 96.2637 135.807 96.2579C136.066 96.2061 136.234 95.9353 136.188 95.6588L135.467 91.678C135.415 91.4015 135.167 91.2229 134.908 91.2747C134.648 91.3266 134.481 91.5973 134.527 91.8739L135.248 95.8547C135.288 96.0966 135.49 96.2695 135.715 96.2695Z" fill="#6020BD"/>
<path d="M131.271 83.1366C131.427 83.1366 131.582 83.0502 131.674 82.9004L133.709 79.4784C133.853 79.2422 133.784 78.9254 133.559 78.7756C133.334 78.6258 133.041 78.6949 132.902 78.9311L130.867 82.3531C130.723 82.5893 130.792 82.9062 131.017 83.056C131.092 83.1136 131.184 83.1366 131.271 83.1366Z" fill="#6020BD"/>
<path d="M149.918 118.431C150.051 118.282 150.085 118.057 149.999 117.861L148.367 114.203C148.252 113.949 147.97 113.84 147.728 113.961C147.491 114.082 147.388 114.387 147.503 114.641L149.134 118.299C149.249 118.552 149.532 118.662 149.774 118.541C149.826 118.512 149.878 118.478 149.918 118.431Z" fill="#6020BD"/>
<path d="M137.617 107.816C137.807 107.816 137.986 107.695 138.061 107.494L139.444 103.72C139.542 103.455 139.421 103.162 139.173 103.058C138.925 102.954 138.649 103.087 138.557 103.346L137.173 107.119C137.075 107.384 137.196 107.678 137.444 107.782C137.502 107.805 137.559 107.816 137.617 107.816Z" fill="#6020BD"/>
<path d="M122.434 131.135C122.509 131.135 122.578 131.118 122.647 131.077C122.884 130.951 122.976 130.645 122.861 130.392L121.149 126.774C121.028 126.52 120.739 126.423 120.509 126.549C120.273 126.676 120.18 126.981 120.296 127.235L122.008 130.853C122.088 131.031 122.261 131.135 122.434 131.135Z" fill="#6020BD"/>
<path d="M147.601 157.135C147.601 157.21 147.618 157.291 147.652 157.366C147.774 157.613 148.062 157.711 148.298 157.584L151.664 155.718C151.901 155.591 151.993 155.28 151.866 155.027C151.745 154.779 151.457 154.681 151.221 154.808L147.854 156.674C147.693 156.766 147.601 156.945 147.601 157.135Z" fill="#6020BD"/>
<path d="M156.743 159.45C156.743 159.531 156.76 159.606 156.795 159.681C156.916 159.934 157.204 160.026 157.44 159.9L158.904 159.087C158.904 158.719 158.904 158.338 158.904 157.941L157.002 158.989C156.835 159.082 156.743 159.266 156.743 159.45Z" fill="#6020BD"/>
<path d="M142.597 163.961L143.75 166.588C143.958 166.565 144.165 166.542 144.379 166.513C144.505 166.495 144.632 166.484 144.753 166.467L143.462 163.523C143.353 163.269 143.064 163.154 142.828 163.275C142.586 163.402 142.482 163.701 142.597 163.961Z" fill="#6020BD"/>
<path d="M116.22 121.906C116.451 121.906 116.653 121.727 116.693 121.48L117.31 117.481C117.35 117.205 117.177 116.94 116.918 116.894C116.658 116.848 116.411 117.038 116.37 117.314L115.753 121.313C115.713 121.589 115.886 121.854 116.145 121.9C116.168 121.906 116.191 121.906 116.22 121.906Z" fill="#6020BD"/>
<path d="M115.822 92.3936C115.903 92.3936 115.99 92.3705 116.065 92.3245C116.289 92.1804 116.364 91.8693 116.232 91.6274L114.301 88.1363C114.168 87.8943 113.874 87.8136 113.644 87.9577C113.419 88.1017 113.344 88.4128 113.476 88.6547L115.407 92.1459C115.5 92.3072 115.661 92.3936 115.822 92.3936Z" fill="#6020BD"/>
<path d="M122.036 106.577C122.123 106.577 122.215 106.548 122.296 106.496L125.478 104.296C125.697 104.14 125.76 103.829 125.622 103.587C125.478 103.351 125.184 103.282 124.959 103.437L121.771 105.638C121.552 105.793 121.489 106.105 121.627 106.347C121.725 106.491 121.881 106.577 122.036 106.577Z" fill="#6020BD"/>
<path d="M155.757 130.359C155.832 130.359 155.901 130.341 155.971 130.301C156.207 130.174 156.299 129.869 156.184 129.615L154.472 125.998C154.351 125.744 154.068 125.646 153.832 125.773C153.596 125.9 153.504 126.205 153.619 126.458L155.331 130.076C155.411 130.255 155.584 130.359 155.757 130.359Z" fill="#6020BD"/>
<path d="M116.612 112.072C116.774 112.072 116.929 111.986 117.016 111.83C117.154 111.588 117.091 111.277 116.866 111.127L113.649 108.978C113.425 108.829 113.131 108.904 112.992 109.14C112.854 109.382 112.917 109.693 113.142 109.843L116.359 111.991C116.434 112.043 116.526 112.072 116.612 112.072Z" fill="#6020BD"/>
<path d="M124.319 117.189C124.434 117.304 124.601 117.356 124.769 117.31C125.022 117.235 125.172 116.953 125.103 116.682L124.106 112.77C124.036 112.5 123.771 112.338 123.518 112.413C123.264 112.488 123.114 112.77 123.183 113.041L124.181 116.953C124.204 117.045 124.256 117.126 124.319 117.189Z" fill="#6020BD"/>
<path d="M110.75 75.8947L111.58 77.2428C111.672 77.3926 111.822 77.4732 111.978 77.4732C112.07 77.4732 112.156 77.4502 112.237 77.3868C112.456 77.2313 112.52 76.9144 112.376 76.6782L111.453 75.1804C111.188 75.4223 110.952 75.6643 110.75 75.8947Z" fill="#6020BD"/>
<path d="M107.113 84.7894L107.995 86.2239C108.087 86.3737 108.237 86.4543 108.393 86.4543C108.485 86.4543 108.571 86.4255 108.658 86.3679C108.877 86.2124 108.94 85.8955 108.79 85.6593L107.54 83.6257C107.401 84.0002 107.263 84.3919 107.113 84.7894Z" fill="#6020BD"/>
<path d="M148.454 142.986C148.58 142.986 148.707 142.935 148.8 142.831L151.428 139.904C151.612 139.703 151.607 139.38 151.416 139.184C151.226 138.988 150.921 138.994 150.742 139.202L148.114 142.128C147.929 142.33 147.935 142.652 148.125 142.848C148.212 142.94 148.333 142.986 148.454 142.986Z" fill="#6020BD"/>
<path d="M130.977 153.211C131.104 153.211 131.23 153.16 131.323 153.056L133.951 150.129C134.136 149.928 134.13 149.605 133.94 149.409C133.749 149.213 133.444 149.219 133.265 149.426L130.637 152.353C130.452 152.555 130.458 152.877 130.648 153.073C130.735 153.165 130.856 153.211 130.977 153.211Z" fill="#6020BD"/>
<path d="M126.118 149.15C126.198 149.046 126.239 148.908 126.221 148.764L125.749 144.743C125.714 144.46 125.478 144.264 125.213 144.299C124.953 144.334 124.763 144.587 124.798 144.869L125.27 148.89C125.305 149.173 125.541 149.369 125.806 149.334C125.933 149.317 126.043 149.248 126.118 149.15Z" fill="#6020BD"/>
<path d="M136.072 160.488C136.199 160.488 136.326 160.436 136.418 160.333L139.046 157.406C139.231 157.204 139.225 156.882 139.035 156.686C138.845 156.49 138.539 156.496 138.36 156.703L135.732 159.63C135.548 159.831 135.553 160.154 135.744 160.35C135.83 160.442 135.951 160.488 136.072 160.488Z" fill="#6020BD"/>
<path d="M107.793 149.421C107.793 149.767 107.793 150.113 107.793 150.447L110.756 150.712C111.021 150.735 111.252 150.527 111.275 150.245C111.298 149.963 111.102 149.721 110.837 149.692L107.793 149.421Z" fill="#6020BD"/>
<path d="M142.517 136.839C142.643 136.839 142.77 136.787 142.863 136.684L145.491 133.757C145.675 133.555 145.67 133.233 145.479 133.037C145.289 132.841 144.99 132.847 144.805 133.054L142.177 135.981C141.992 136.182 141.998 136.505 142.188 136.701C142.28 136.787 142.401 136.839 142.517 136.839Z" fill="#6020BD"/>
<path d="M129.881 135.566C129.887 135.699 129.945 135.831 130.049 135.923L132.954 138.533C133.156 138.717 133.455 138.689 133.628 138.47C133.795 138.251 133.772 137.934 133.571 137.75L130.665 135.14C130.464 134.956 130.164 134.984 129.991 135.203C129.91 135.307 129.876 135.439 129.881 135.566Z" fill="#6020BD"/>
<path d="M116.047 149.915C116.128 149.915 116.209 149.892 116.284 149.846C116.514 149.702 116.589 149.391 116.457 149.149L114.554 145.641C114.422 145.399 114.128 145.312 113.903 145.456C113.672 145.6 113.598 145.912 113.73 146.153L115.632 149.662C115.725 149.823 115.886 149.915 116.047 149.915Z" fill="#6020BD"/>
<path d="M112.762 139.488C112.935 139.488 113.102 139.385 113.188 139.212L114.929 135.611C115.05 135.358 114.958 135.053 114.722 134.926C114.485 134.793 114.197 134.897 114.076 135.145L112.335 138.745C112.214 138.999 112.306 139.304 112.543 139.431C112.612 139.471 112.687 139.488 112.762 139.488Z" fill="#6020BD"/>
<path d="M117.95 98.5813C118.122 98.5813 118.29 98.4776 118.376 98.3048L120.117 94.7042C120.238 94.4507 120.146 94.1454 119.909 94.0186C119.673 93.8919 119.385 93.9898 119.264 94.2375L117.523 97.8381C117.402 98.0916 117.494 98.3969 117.73 98.5237C117.8 98.564 117.875 98.5813 117.95 98.5813Z" fill="#6020BD"/>
<path d="M116.047 83.464C116.076 83.464 116.105 83.4582 116.14 83.4525C116.399 83.4006 116.566 83.1299 116.52 82.8534L115.8 78.8725C115.748 78.596 115.5 78.4117 115.24 78.4693C114.981 78.5211 114.814 78.7919 114.86 79.0684L115.58 83.0492C115.627 83.2912 115.823 83.464 116.047 83.464Z" fill="#6020BD"/>
<path d="M107.315 97.1983C107.344 97.1983 107.372 97.1926 107.407 97.1868C107.666 97.1349 107.833 96.8642 107.787 96.5877L107.067 92.6069C107.015 92.3303 106.767 92.1517 106.508 92.2036C106.248 92.2554 106.081 92.5262 106.127 92.8027L106.848 96.7835C106.888 97.0313 107.09 97.1983 107.315 97.1983Z" fill="#6020BD"/>
<path d="M122.255 86.9545C122.284 86.9545 122.313 86.9488 122.348 86.943C122.607 86.8911 122.774 86.6204 122.728 86.3439L122.008 82.363C121.956 82.0865 121.708 81.9079 121.448 81.9598C121.189 82.0116 121.022 82.2824 121.068 82.5589L121.788 86.5397C121.829 86.7874 122.031 86.9545 122.255 86.9545Z" fill="#6020BD"/>
<path d="M119.408 73.0885C119.5 73.1115 119.592 73.1057 119.673 73.0712C119.823 73.0136 119.944 72.8811 119.978 72.7082L120.78 69.05C120.405 69.2632 120.03 69.4764 119.656 69.6953L119.045 72.472C118.987 72.7543 119.148 73.0251 119.408 73.0885Z" fill="#6020BD"/>
<path d="M108.473 103.351C108.629 103.351 108.784 103.264 108.877 103.115L110.911 99.6927C111.055 99.4565 110.986 99.1396 110.761 98.9898C110.537 98.84 110.243 98.9092 110.104 99.1454L108.07 102.567C107.925 102.804 107.995 103.12 108.219 103.27C108.294 103.328 108.387 103.351 108.473 103.351Z" fill="#6020BD"/>
<path d="M122.048 140.122C122.18 139.973 122.215 139.748 122.129 139.552L120.497 135.894C120.382 135.64 120.1 135.531 119.857 135.652C119.621 135.773 119.517 136.078 119.633 136.332L121.264 139.99C121.379 140.243 121.662 140.353 121.904 140.232C121.956 140.203 122.008 140.168 122.048 140.122Z" fill="#6020BD"/>
<path d="M155.665 146.996L158.858 147.549C158.858 147.209 158.852 146.863 158.847 146.512L155.82 145.988C155.561 145.947 155.313 146.132 155.273 146.408C155.227 146.69 155.4 146.95 155.665 146.996Z" fill="#6020BD"/>
<path d="M156.633 137.651L158.76 138.02C158.755 137.674 158.755 137.329 158.749 136.983L156.789 136.643C156.53 136.597 156.282 136.787 156.241 137.064C156.195 137.346 156.374 137.605 156.633 137.651Z" fill="#6020BD"/>
<path d="M109.747 129.506C109.937 129.506 110.116 129.385 110.191 129.183L111.574 125.41C111.672 125.145 111.551 124.851 111.303 124.747C111.055 124.643 110.779 124.776 110.686 125.035L109.303 128.809C109.205 129.074 109.326 129.367 109.574 129.471C109.632 129.494 109.689 129.506 109.747 129.506Z" fill="#6020BD"/>
<path d="M107.995 117.598C108.895 113.894 110.019 109.775 111.137 106.226C111.137 106.22 111.143 106.214 111.143 106.203C111.488 105.108 111.834 104.065 112.169 103.109C112.174 103.092 112.18 103.075 112.186 103.057C112.29 102.758 112.393 102.464 112.503 102.182C112.52 102.13 112.526 102.084 112.526 102.032C112.526 101.865 112.422 101.703 112.249 101.64C112.03 101.559 111.788 101.675 111.708 101.894C110.56 105.016 109.206 109.51 108.047 113.917C108.03 115.138 108.013 116.365 107.995 117.598Z" fill="#6020BD"/>
<path d="M121.697 46.0462C121.697 46.0462 118.371 42.3823 119.627 38.1134C120.884 33.8503 124.319 33.8964 124.319 33.8964C124.319 33.8964 126.325 29.3626 129.738 29.2128C133.15 29.063 136.372 23.0025 139.479 24.6501C142.586 26.2977 139.145 29.8868 139.145 29.8868C139.145 29.8868 144.465 24.2757 146.223 25.9233C147.976 27.5709 143.785 31.9838 143.785 31.9838C143.785 31.9838 148.258 28.8441 149.728 30.0366C151.198 31.2349 146.223 36.3967 146.223 36.3967C146.223 36.3967 149.44 42.1922 146.2 44.7961L121.697 46.0462Z" fill="#403657"/>
<path d="M144.95 47.2732C144.95 47.2732 147.077 44.4388 148.662 46.7835C150.247 49.1282 148.005 56.0529 144.131 54.3649L144.95 47.2732Z" fill="#F97853"/>
<path d="M144.979 52.2216C145.123 52.2216 145.255 52.1295 145.296 51.9854C145.895 49.8481 148.114 48.9782 148.137 48.9725C148.305 48.9091 148.391 48.719 148.328 48.5519C148.264 48.3849 148.074 48.2984 147.907 48.3618C147.803 48.4021 145.359 49.3469 144.667 51.8126C144.621 51.9855 144.719 52.1698 144.892 52.2159C144.921 52.2159 144.95 52.2216 144.979 52.2216Z" fill="#EA5143"/>
<path d="M147.215 51.1449C147.278 51.1449 147.336 51.1277 147.394 51.0931C147.544 50.9952 147.59 50.7935 147.492 50.638C147.474 50.6149 147.082 50.0158 146.264 49.6471C146.097 49.5722 145.906 49.6471 145.832 49.8142C145.757 49.9812 145.832 50.1713 145.999 50.2462C146.633 50.5285 146.944 50.9894 146.944 50.9952C147.002 51.0931 147.105 51.1449 147.215 51.1449Z" fill="#EA5143"/>
<path d="M123.017 47.2732C123.017 47.2732 120.89 44.4388 119.305 46.7835C117.719 49.1282 119.962 56.0529 123.835 54.3649L123.017 47.2732Z" fill="#F97853"/>
<path d="M122.994 52.2216C122.85 52.2216 122.717 52.1295 122.677 51.9854C122.077 49.8481 119.858 48.9782 119.835 48.9725C119.668 48.9091 119.581 48.719 119.645 48.5519C119.708 48.3849 119.898 48.2984 120.066 48.3618C120.169 48.4021 122.613 49.3469 123.305 51.8126C123.351 51.9855 123.253 52.1698 123.08 52.2159C123.052 52.2159 123.023 52.2216 122.994 52.2216Z" fill="#EA5143"/>
<path d="M120.752 51.1457C120.688 51.1457 120.631 51.1284 120.573 51.0938C120.423 50.9959 120.377 50.7943 120.475 50.6387C120.492 50.6157 120.884 50.0165 121.703 49.6478C121.87 49.573 122.06 49.6478 122.135 49.8149C122.21 49.982 122.135 50.1721 121.968 50.247C121.334 50.5293 121.023 50.9901 121.023 50.9959C120.965 51.0938 120.861 51.1457 120.752 51.1457Z" fill="#EA5143"/>
<path d="M128.747 60.2354V67.1255C128.747 67.1255 130.804 70.6339 133.583 70.8701C136.361 71.112 138.828 67.8513 138.828 67.8513V60.7193L128.747 60.2354Z" fill="#FFA681"/>
<path d="M128.747 60.2354V63.2944C130.614 65.3626 133.923 65.8811 138.828 65.1552V60.7193L128.747 60.2354Z" fill="#F97853"/>
<path d="M121.484 42.5496C121.61 45.2284 121.864 48.5755 122.377 51.2486V51.2543C122.377 51.2601 122.377 51.2716 122.383 51.2774C122.383 51.2774 122.383 51.2774 122.383 51.2831C122.51 51.9341 122.648 52.5505 122.804 53.1036C122.896 53.4262 122.994 53.7661 123.109 54.1118C124.74 59.2332 128.527 66.6475 138.038 63.2544C142.045 61.8256 144.131 57.6951 145.192 53.2073C145.255 52.9423 145.313 52.6773 145.365 52.418C145.399 52.251 145.434 52.0839 145.463 51.9226L145.509 51.6806C145.515 51.6403 145.52 51.6115 145.526 51.5942C145.526 51.5827 145.526 51.5769 145.526 51.5769C146.154 48.1261 146.247 44.6408 146.201 42.152C146.154 39.6115 144.765 37.2898 142.552 36.0339C136.557 32.635 130.234 33.9024 126.066 35.5039C123.184 36.6215 121.334 39.4617 121.484 42.5496Z" fill="#FFA681"/>
<path d="M122.371 51.2483C122.371 51.2483 122.371 51.2483 122.371 51.2541C122.371 51.2599 122.371 51.2714 122.377 51.2771C122.377 51.2771 122.377 51.2771 122.377 51.2829C122.44 51.5076 122.775 52.7347 123.103 54.1115C124.734 59.233 128.522 66.6473 138.032 63.2541C142.039 61.8254 144.125 57.6948 145.186 53.2071C145.249 52.9421 145.307 52.677 145.359 52.4178C145.393 52.2507 145.428 52.0837 145.457 51.9224L145.503 51.6804C145.509 51.6401 145.514 51.6113 145.52 51.594C145.52 51.5825 145.52 51.5767 145.52 51.5767L144.119 51.2944C143.854 52.6194 143.261 53.8638 142.534 54.9757C141.353 52.1413 135.346 54.0251 135.346 54.0251L135.318 54.0366C134.954 54.1518 134.574 54.2095 134.199 54.2095C133.813 54.2095 133.427 54.1461 133.046 54.0251C133.046 54.0251 127.115 52.0606 125.882 54.7625C124.654 52.8614 123.818 51.1331 123.818 51.1331L122.371 51.2483ZM134.194 55.3156C140.984 54.3996 139.917 58.052 139.917 58.052C139.162 58.7376 138.476 59.2388 138.009 59.498C136.528 60.3218 135.07 60.6387 134.009 60.5868C132.966 60.5407 132.683 60.7539 130.049 59.3309C129.582 59.0832 129.115 58.7087 128.654 58.2709C128.539 57.5566 127.386 54.1461 134.194 55.3156Z" fill="#403657"/>
<path d="M128.043 47.5271C128.043 48.2645 128.424 48.8579 128.891 48.8579C129.357 48.8579 129.738 48.2645 129.738 47.5271C129.738 46.7897 129.357 46.1963 128.891 46.1963C128.424 46.1963 128.043 46.7955 128.043 47.5271Z" fill="#403657"/>
<path d="M138.632 47.5271C138.632 48.2645 139.013 48.8579 139.479 48.8579C139.946 48.8579 140.327 48.2645 140.327 47.5271C140.327 46.7897 139.946 46.1963 139.479 46.1963C139.007 46.1963 138.632 46.7955 138.632 47.5271Z" fill="#403657"/>
<path d="M125.876 43.0393C125.876 43.0393 129.375 41.6567 132.072 42.8204L131.802 44.3182C131.802 44.3182 127.847 43.9841 125.853 44.7906C125.674 44.2145 125.645 43.6327 125.876 43.0393Z" fill="#403657"/>
<path d="M142.511 43.0444C142.511 43.0444 138.984 41.6502 136.274 42.8255L136.545 44.3348C136.545 44.3348 140.528 44.0007 142.534 44.813C142.719 44.2311 142.742 43.6435 142.511 43.0444Z" fill="#403657"/>
<path d="M133.871 53.4792C133.318 53.4792 132.77 53.266 132.683 53.2315C132.516 53.1623 132.436 52.9722 132.505 52.8052C132.574 52.6381 132.764 52.5574 132.931 52.6266C133.225 52.7475 133.934 52.9319 134.246 52.7533C134.303 52.7187 134.384 52.6496 134.407 52.448C134.528 51.3073 134.211 47.4763 134.211 47.436C134.194 47.2574 134.332 47.0961 134.511 47.0845C134.689 47.0673 134.851 47.2055 134.862 47.3841C134.874 47.5454 135.185 51.3131 135.058 52.5171C135.012 52.9722 134.776 53.2027 134.58 53.3179C134.372 53.4331 134.119 53.4792 133.871 53.4792Z" fill="#F97853"/>
<path d="M138.044 55.9727C137.796 57.2228 136.972 59.5214 134.188 59.5214C131.398 59.5214 130.614 57.4187 130.349 55.9727H138.044Z" fill="white"/>
<path d="M121.478 42.5438C121.605 45.2226 121.858 48.5697 122.371 51.2428L123.835 51.1391C123.835 51.1391 123.478 48.8808 123.317 47.406C123.155 45.9312 122.873 43.1832 124.129 42.8376C125.386 42.4977 124.648 39.358 126.395 37.9984C128.141 36.633 132.044 36.2586 134.614 37.8428C137.185 39.4213 140.09 37.7218 141.272 37.9984C142.46 38.2691 144.074 39.9052 143.635 41.4319C143.197 42.9585 144.506 43.8861 144.823 45.4645C145.14 47.043 144.125 51.3004 144.125 51.3004L145.526 51.5827C146.154 48.1319 146.252 44.6465 146.206 42.1578C146.16 39.6172 144.771 37.2898 142.558 36.0397C136.563 32.6407 130.239 33.9081 126.072 35.5096C123.184 36.6215 121.334 39.4617 121.478 42.5438Z" fill="#403657"/>
<path d="M181.725 116.248C180.838 124.36 175.535 142.483 171.869 146.032C167.09 150.652 151.371 160.383 143.18 165.372C141.704 166.27 148.644 172.267 148.644 172.267C148.644 172.267 170.387 162.975 178.693 155.647C181.045 153.573 185.812 147.035 191.196 134.585C192.827 130.812 196.787 123.196 196.58 118.23C196.338 112.521 187.259 113.46 181.725 116.248Z" fill="#7846D1"/>
<path d="M164.761 162.85C164.761 162.85 158.847 165.097 156.749 167.563C154.651 170.034 151.884 172.125 152.558 173.099C153.233 174.072 156.299 171.227 156.299 171.227C156.299 171.227 157.141 174.349 160.115 174.689C163.089 175.029 168.721 169.204 168.721 169.204L164.761 162.85Z" fill="#FFA681"/>
<path d="M223.135 138.901C223.135 139.414 223.129 140.025 223.124 140.71C223.112 141.396 223.101 142.162 223.077 142.997C223.06 143.568 223.043 144.178 223.02 144.812C223.003 145.348 222.979 145.901 222.956 146.477C222.933 147.065 222.905 147.669 222.876 148.297C222.466 156.795 221.469 168.524 219.279 177.932H173.275C174.808 171.099 177.16 160.315 179.022 146.327C179.102 145.739 179.177 145.146 179.252 144.547C179.327 143.948 179.402 143.343 179.477 142.732C179.517 142.41 179.558 142.081 179.598 141.753C179.627 141.482 179.661 141.211 179.69 140.946C179.777 140.192 179.852 139.449 179.921 138.723C179.978 138.118 180.03 137.519 180.082 136.931C180.872 127.529 180.595 120.478 181.725 116.255C183.045 111.341 198.441 105.707 198.441 105.707L208.085 106.214C208.085 106.214 217.284 109.215 222.201 113.53C227.118 117.845 223.008 130.721 223.129 138.031C223.135 138.279 223.135 138.567 223.135 138.901Z" fill="#9C78ED"/>
<path d="M223.124 140.709C218.939 141.216 214.575 141.418 210.292 141.418C196.268 141.418 183.103 139.275 179.915 138.716C179.973 138.111 180.025 137.512 180.076 136.925C183.783 137.581 205.214 141.124 223.129 138.901C223.141 139.413 223.135 140.024 223.124 140.709Z" fill="#E0D5F8"/>
<path d="M223.077 142.997C223.06 143.568 223.043 144.178 223.02 144.812C218.864 145.307 214.541 145.509 210.292 145.509C195.478 145.509 181.621 143.118 179.471 142.732C179.512 142.41 179.552 142.081 179.592 141.753C179.621 141.482 179.656 141.211 179.684 140.946C181.817 141.332 204.355 145.307 223.077 142.997Z" fill="#E0D5F8"/>
<path d="M222.962 146.477C222.939 147.065 222.91 147.67 222.881 148.297C218.558 148.845 214.033 149.058 209.601 149.058C195.254 149.058 181.811 146.817 179.021 146.321C179.102 145.734 179.177 145.14 179.252 144.541C182.572 145.135 204.713 148.868 222.962 146.477Z" fill="#E0D5F8"/>
<path d="M201.225 114.954C206.021 114.954 210.448 109.861 210.638 109.636C210.759 109.492 210.742 109.279 210.604 109.158C210.46 109.037 210.246 109.054 210.125 109.193C210.079 109.244 205.445 114.585 200.81 114.262C200.626 114.251 200.464 114.389 200.447 114.573C200.436 114.758 200.574 114.919 200.758 114.936C200.92 114.948 201.076 114.954 201.225 114.954Z" fill="#7846D1"/>
<path d="M205.387 172.257C205.554 172.257 205.704 172.13 205.721 171.957C205.745 171.773 205.612 171.606 205.422 171.583C193.034 170.16 187.898 148.723 187.847 148.51C187.806 148.326 187.622 148.216 187.443 148.256C187.259 148.297 187.149 148.481 187.189 148.66C187.397 149.564 192.487 170.776 205.347 172.257C205.358 172.251 205.37 172.257 205.387 172.257Z" fill="#7846D1"/>
<path d="M200.453 165.77C200.568 165.77 200.678 165.712 200.741 165.609C200.839 165.447 200.787 165.24 200.632 165.142C194.043 161.08 193.063 155.095 193.052 155.037C193.023 154.853 192.85 154.726 192.666 154.755C192.481 154.784 192.354 154.957 192.383 155.141C192.424 155.4 193.409 161.489 200.274 165.724C200.332 165.753 200.39 165.77 200.453 165.77Z" fill="#7846D1"/>
<path d="M204.298 96.9905C211.795 96.9905 217.872 90.9163 217.872 83.4234C217.872 75.9306 211.795 69.8564 204.298 69.8564C196.801 69.8564 190.723 75.9306 190.723 83.4234C190.723 90.9163 196.801 96.9905 204.298 96.9905Z" fill="#403657"/>
<path d="M190.948 80.9926C190.948 80.9926 187.103 79.9326 187.61 76.2052C188.043 73.031 191.772 75.0876 191.444 72.6104C191.115 70.1275 190.389 67.8749 193.599 67.2528C196.407 66.7112 196.453 68.6354 200.142 65.8413C204.499 62.5461 207.843 70.1793 211.734 70.4097C217.469 70.7496 218.189 73.9873 218.754 76.5797C219.319 79.1721 217.112 80.9926 217.112 80.9926H190.948Z" fill="#403657"/>
<path d="M193.006 87.2206C193.006 87.2206 190.855 84.3574 189.259 86.7252C187.662 89.0929 189.922 96.0924 193.836 94.3814L193.006 87.2206Z" fill="#F97853"/>
<path d="M192.977 92.2213C192.833 92.2213 192.7 92.1234 192.66 91.9794C192.054 89.819 189.812 88.9434 189.789 88.9376C189.616 88.8742 189.535 88.6841 189.599 88.5113C189.662 88.3385 189.853 88.2578 190.025 88.3212C190.129 88.3615 192.596 89.3178 193.3 91.8066C193.351 91.9851 193.248 92.1637 193.069 92.2156C193.04 92.2156 193.006 92.2213 192.977 92.2213Z" fill="#EA5143"/>
<path d="M190.717 91.1319C190.654 91.1319 190.596 91.1146 190.538 91.08C190.383 90.9821 190.342 90.7747 190.44 90.6249C190.458 90.6019 190.855 89.997 191.68 89.6225C191.847 89.5476 192.043 89.6225 192.118 89.7896C192.193 89.9567 192.118 90.1525 191.951 90.2274C191.311 90.5155 190.999 90.9763 190.994 90.9821C190.93 91.08 190.827 91.1319 190.717 91.1319Z" fill="#EA5143"/>
<path d="M208.598 100.315V107.274C208.598 107.274 205.733 110.339 202.926 110.581C200.119 110.823 198.413 107.493 198.413 107.493V100.804L208.598 100.315Z" fill="#FFA681"/>
<path d="M208.598 100.315V103.403C206.713 105.494 203.37 106.012 198.418 105.281V100.799L208.598 100.315Z" fill="#F97853"/>
<path d="M215.941 82.4441C215.815 85.146 215.555 88.5276 215.036 91.2353C214.91 91.9093 214.76 92.543 214.598 93.1133C213.134 98.2406 209.468 107.032 199.208 103.374C194.677 101.755 192.573 96.7139 191.639 91.5809C191.005 88.0956 190.907 84.5756 190.953 82.0581C191.005 79.4887 192.406 77.144 194.643 75.8766C200.701 72.4431 207.087 73.722 211.295 75.3409C214.218 76.4642 216.091 79.3274 215.941 82.4441Z" fill="#FFA681"/>
<path d="M203.63 87.3584V87.9057C203.63 89.0118 204.062 90.0487 204.846 90.8265C205.618 91.5927 206.639 92.0132 207.728 92.0132H207.861C208.806 91.9959 209.659 91.6157 210.408 90.8841C211.164 90.1524 211.59 89.0982 211.59 87.9978V87.3469C211.59 87.1683 211.556 86.9954 211.492 86.8341C211.423 86.6383 211.308 86.4712 211.164 86.3272C210.904 86.0679 210.541 85.9066 210.143 85.9066H205.065C204.489 85.9066 203.993 86.2408 203.762 86.7304C203.676 86.909 203.624 87.1049 203.624 87.3123C203.63 87.3353 203.63 87.3469 203.63 87.3584ZM204.229 87.3584C204.229 86.8917 204.61 86.5115 205.077 86.5115H210.155C210.622 86.5115 211.002 86.886 211.002 87.3584V88.0094C211.002 88.9484 210.639 89.8413 209.999 90.4635C209.359 91.0799 208.639 91.4026 207.855 91.4198H207.734C206.806 91.4198 205.935 91.0627 205.273 90.4059C204.604 89.7434 204.235 88.8562 204.235 87.9114V87.3584H204.229Z" fill="#403657"/>
<path d="M193.461 87.3588V87.9061C193.461 89.0122 193.894 90.0492 194.678 90.8269C195.45 91.5931 196.47 92.0137 197.56 92.0137H197.698C198.638 91.9964 199.497 91.6162 200.246 90.8845C201.001 90.1529 201.433 89.0986 201.433 87.9983V87.3473C201.433 87.3358 201.433 87.33 201.433 87.3185C201.433 87.1226 201.387 86.9383 201.312 86.7655C201.087 86.2585 200.58 85.9013 199.992 85.9013H194.914C194.47 85.9013 194.067 86.103 193.802 86.4198C193.675 86.5753 193.577 86.7597 193.525 86.9556C193.479 87.0996 193.461 87.2263 193.461 87.3588ZM194.061 87.3588C194.061 86.8922 194.441 86.512 194.908 86.512H199.987C200.453 86.512 200.834 86.8864 200.834 87.3588V88.0098C200.834 88.9489 200.465 89.8418 199.831 90.464C199.197 91.0804 198.471 91.403 197.687 91.4203H197.566C196.638 91.4203 195.767 91.0631 195.11 90.4064C194.441 89.7439 194.072 88.8567 194.072 87.9119V87.3588H194.061Z" fill="#403657"/>
<path d="M215.215 85.673C213.492 85.5981 212.258 86.0935 211.774 86.3355C211.636 86.3988 211.273 86.635 211.261 86.6466L211.544 87.1535C211.549 87.1535 211.947 86.9116 212.103 86.8424C212.581 86.6177 213.642 86.1742 215.221 86.2663V85.673H215.215Z" fill="#403657"/>
<path d="M204.033 87.381L204.229 86.8164C204.194 86.8049 203.352 86.5168 202.43 86.5168C201.444 86.5168 200.816 86.8164 200.787 86.8337L201.047 87.3695C201.053 87.3695 201.589 87.116 202.43 87.116C203.249 87.116 204.027 87.381 204.033 87.381Z" fill="#403657"/>
<path d="M191.363 85.8205V86.4196C192.602 86.5233 193.749 87.0764 193.766 87.0821L194.032 86.5464C193.962 86.5118 192.735 85.9184 191.363 85.8205Z" fill="#403657"/>
<path d="M198.164 88.1245C198.164 88.8677 197.784 89.4668 197.311 89.4668C196.839 89.4668 196.458 88.8619 196.458 88.1245C196.458 87.3814 196.839 86.7822 197.311 86.7822C197.778 86.7822 198.164 87.3814 198.164 88.1245Z" fill="#403657"/>
<path d="M208.183 88.1245C208.183 88.8677 207.802 89.4668 207.33 89.4668C206.857 89.4668 206.477 88.8619 206.477 88.1245C206.477 87.3814 206.857 86.7822 207.33 86.7822C207.797 86.7822 208.183 87.3814 208.183 88.1245Z" fill="#403657"/>
<path d="M194.527 83.9936C194.527 83.9936 198.09 82.588 200.833 83.7689L200.603 85.0421C200.603 85.0421 197.634 84.3796 194.723 85.4627C194.539 84.8808 194.291 84.5985 194.527 83.9936Z" fill="#403657"/>
<path d="M210.823 83.9936C210.823 83.9936 207.261 82.588 204.517 83.7689L204.747 85.0421C204.747 85.0421 207.716 84.3796 210.627 85.4627C210.806 84.8808 211.053 84.5985 210.823 83.9936Z" fill="#403657"/>
<path d="M202.845 93.7631C203.404 93.7631 203.958 93.5442 204.044 93.5097C204.211 93.4405 204.292 93.2504 204.223 93.0776C204.154 92.9105 203.963 92.8299 203.79 92.899C203.491 93.02 202.776 93.2101 202.465 93.0257C202.407 92.9912 202.321 92.9163 202.303 92.7204C202.182 91.5682 202.499 87.6969 202.505 87.6565C202.522 87.4722 202.384 87.3166 202.205 87.2994C202.021 87.2821 201.865 87.4203 201.848 87.5989C201.836 87.7602 201.525 91.5682 201.652 92.7838C201.698 93.2389 201.94 93.4751 202.13 93.5903C202.338 93.717 202.591 93.7631 202.845 93.7631Z" fill="#F97853"/>
<path d="M198.741 95.4408C199.012 96.8004 199.911 99.3007 202.937 99.3007C205.969 99.3007 206.822 97.0136 207.116 95.4408H198.741Z" fill="white"/>
<path d="M202.897 101.029C203.756 101.029 204.477 100.597 204.511 100.58C204.667 100.488 204.719 100.28 204.621 100.125C204.528 99.9694 204.321 99.9175 204.165 100.015C204.16 100.021 203.56 100.373 202.897 100.373C202.286 100.373 201.698 100.021 201.692 100.015C201.537 99.9175 201.335 99.9694 201.237 100.125C201.139 100.28 201.191 100.482 201.347 100.58C201.375 100.592 202.09 101.029 202.897 101.029Z" fill="#F97853"/>
<path d="M192.665 89.4264C192.418 88.061 192.17 86.304 192.348 85.3995C192.671 83.8037 193.991 82.8647 193.553 81.3265C193.115 79.7826 194.741 78.1292 195.94 77.8527C197.139 77.5761 199.94 78.1695 202.695 76.8618C205.324 75.6117 209.9 76.5046 210.644 78.1926C211.543 80.2377 210.321 80.4278 212.783 82.64C213.763 83.5214 212.598 85.8085 212.431 87.2948C212.356 87.9804 212.345 88.3145 212.373 89.0462L212.385 89.4206H215.33C215.653 87.1163 215.843 84.5699 215.941 82.4384C216.091 79.3217 214.218 76.4585 211.301 75.3351C207.093 73.7163 200.707 72.4374 194.648 75.8709C192.412 77.1383 191.011 79.483 190.965 82.0524C190.925 84.0457 190.982 86.6784 191.322 89.4206H192.665V89.4264Z" fill="#403657"/>
<path d="M214.022 90.6943C214.011 89.9223 214.068 89.1561 214.201 88.3957C214.385 87.3587 214.685 86.4197 215.746 85.9876C216.599 85.642 217.51 85.6304 218.161 86.5925C219.758 88.9603 217.976 96.3343 214.063 94.6233L214.022 90.6943Z" fill="#FFA681"/>
<path d="M214.829 92.4821C214.973 92.4533 215.082 92.3324 215.094 92.1826C215.267 89.9473 217.29 88.6511 217.313 88.6338C217.469 88.5359 217.515 88.3343 217.417 88.1787C217.319 88.0232 217.117 87.9771 216.961 88.075C216.869 88.1326 214.633 89.5556 214.437 92.1307C214.425 92.3151 214.558 92.4706 214.742 92.4879C214.765 92.4937 214.8 92.4879 214.829 92.4821Z" fill="#F97853"/>
<path d="M216.829 90.9705C216.887 90.959 216.945 90.9302 216.997 90.8841C217.129 90.7573 217.129 90.5499 217.002 90.4174C216.979 90.3944 216.472 89.8817 215.59 89.68C215.411 89.6397 215.233 89.7492 215.192 89.9278C215.152 90.1064 215.262 90.2849 215.44 90.3253C216.126 90.4808 216.524 90.8726 216.524 90.8783C216.61 90.959 216.726 90.9935 216.829 90.9705Z" fill="#F97853"/>
<path d="M220.248 112.016C215.411 119.338 196.914 144.657 192.741 147.595C187.305 151.426 172.491 156.87 163.989 162.545C161.101 164.475 167.926 169.93 167.926 169.93C167.926 169.93 188.66 164.106 197.992 158.149C200.632 156.467 211.618 145.464 218.622 135.71C221.02 132.369 224.922 127.726 225.487 122.789C226.139 117.108 224.352 114.066 220.248 112.016Z" fill="#7846D1"/>
<path d="M183.581 177.932H125.951C125.213 177.932 124.619 177.333 124.619 176.602V172.01C124.619 171.273 125.219 170.679 125.951 170.679H183.581C184.319 170.679 184.913 171.278 184.913 172.01V176.602C184.913 177.333 184.319 177.932 183.581 177.932Z" fill="#1A0B42"/>
<path d="M124.625 177.932L113.292 135.509C112.658 133.124 114.451 130.79 116.918 130.79H141.86C143.543 130.79 145.019 131.908 145.474 133.527L157.953 177.932H124.625Z" fill="#403657"/>
<path d="M145.48 133.527L157.855 177.569H160.703L148.327 133.527C147.866 131.908 146.396 130.785 144.713 130.785H141.865C143.543 130.785 145.019 131.908 145.48 133.527Z" fill="#1A0B42"/>
<path d="M139.064 156.259C139.71 159.059 137.969 161.323 135.168 161.323C132.366 161.323 129.571 159.053 128.925 156.259C128.279 153.459 130.02 151.195 132.822 151.195C135.623 151.19 138.419 153.459 139.064 156.259Z" fill="#614C6E"/>
<path d="M216.351 21.6786C214.253 21.6786 212.547 19.9734 212.547 17.8764C212.547 15.7794 214.253 14.0742 216.351 14.0742C218.449 14.0742 220.155 15.7794 220.155 17.8764C220.155 19.9734 218.449 21.6786 216.351 21.6786ZM216.351 15.2667C214.91 15.2667 213.74 16.4361 213.74 17.8764C213.74 19.3166 214.91 20.4861 216.351 20.4861C217.792 20.4861 218.962 19.3166 218.962 17.8764C218.962 16.4361 217.792 15.2667 216.351 15.2667Z" fill="#7846D1"/>
<path d="M230.052 35.0264C227.954 35.0264 226.248 33.3212 226.248 31.2242C226.248 29.1272 227.954 27.422 230.052 27.422C232.151 27.422 233.857 29.1272 233.857 31.2242C233.857 33.3212 232.151 35.0264 230.052 35.0264ZM230.052 28.6145C228.611 28.6145 227.441 29.784 227.441 31.2242C227.441 32.6644 228.611 33.8339 230.052 33.8339C231.493 33.8339 232.664 32.6644 232.664 31.2242C232.664 29.784 231.493 28.6145 230.052 28.6145Z" fill="#9C78ED"/>
<path d="M234.756 47.3894C234.428 47.3894 234.157 47.1244 234.157 46.7902V44.1575C234.157 43.8291 234.422 43.5583 234.756 43.5583C235.085 43.5583 235.356 43.8234 235.356 44.1575V46.7902C235.35 47.1186 235.085 47.3894 234.756 47.3894Z" fill="#7846D1"/>
<path d="M234.757 51.9928C234.428 51.9928 234.157 51.7278 234.157 51.3937V48.7609C234.157 48.4326 234.422 48.1618 234.757 48.1618C235.085 48.1618 235.356 48.4268 235.356 48.7609V51.3937C235.35 51.7278 235.085 51.9928 234.757 51.9928Z" fill="#7846D1"/>
<path d="M238.451 48.3761H236.088C235.759 48.3761 235.489 48.1111 235.489 47.777C235.489 47.4486 235.754 47.1778 236.088 47.1778H238.451C238.78 47.1778 239.051 47.4428 239.051 47.777C239.045 48.1111 238.78 48.3761 238.451 48.3761Z" fill="#7846D1"/>
<path d="M233.425 48.3761H231.062C230.733 48.3761 230.462 48.1111 230.462 47.777C230.462 47.4486 230.728 47.1778 231.062 47.1778H233.425C233.754 47.1778 234.025 47.4428 234.025 47.777C234.019 48.1111 233.754 48.3761 233.425 48.3761Z" fill="#7846D1"/>
<path d="M213.74 32.644C213.411 32.644 213.14 32.3789 213.14 32.0448V29.4121C213.14 29.0837 213.406 28.8129 213.74 28.8129C214.068 28.8129 214.339 29.0779 214.339 29.4121V32.0448C214.334 32.3789 214.068 32.644 213.74 32.644Z" fill="#5B23A9"/>
<path d="M213.74 37.2529C213.411 37.2529 213.14 36.9879 213.14 36.6537V34.021C213.14 33.6926 213.406 33.4218 213.74 33.4218C214.068 33.4218 214.339 33.6868 214.339 34.021V36.6537C214.334 36.9821 214.068 37.2529 213.74 37.2529Z" fill="#5B23A9"/>
<path d="M217.435 33.6324H215.072C214.743 33.6324 214.472 33.3674 214.472 33.0333C214.472 32.7049 214.737 32.4342 215.072 32.4342H217.435C217.764 32.4342 218.034 32.6992 218.034 33.0333C218.029 33.3617 217.764 33.6324 217.435 33.6324Z" fill="#5B23A9"/>
<path d="M212.408 33.6324H210.045C209.716 33.6324 209.446 33.3674 209.446 33.0333C209.446 32.7049 209.711 32.4342 210.045 32.4342H212.408C212.737 32.4342 213.008 32.6992 213.008 33.0333C213.002 33.3617 212.737 33.6324 212.408 33.6324Z" fill="#5B23A9"/>
<path d="M39.7065 4.21636C39.7065 2.11938 41.4128 0.414139 43.5109 0.414139C45.6091 0.414139 47.3153 2.11938 47.3153 4.21636C47.3153 6.31334 45.6091 8.01857 43.5109 8.01857C41.4128 8.01857 39.7065 6.31334 39.7065 4.21636ZM40.8997 4.21636C40.8997 5.65659 42.0699 6.82606 43.5109 6.82606C44.952 6.82606 46.1221 5.65659 46.1221 4.21636C46.1221 2.77612 44.952 1.60665 43.5109 1.60665C42.0699 1.60089 40.8997 2.77612 40.8997 4.21636Z" fill="#7846D1"/>
<path d="M24.4197 18.7181C24.4197 16.6211 26.1259 14.9159 28.2241 14.9159C30.3222 14.9159 32.0284 16.6211 32.0284 18.7181C32.0284 20.8151 30.3222 22.5203 28.2241 22.5203C26.1259 22.5203 24.4197 20.8151 24.4197 18.7181ZM25.6129 18.7181C25.6129 20.1583 26.783 21.3278 28.2241 21.3278C29.6651 21.3278 30.8353 20.1583 30.8353 18.7181C30.8353 17.2778 29.6651 16.1084 28.2241 16.1084C26.783 16.1026 25.6129 17.2778 25.6129 18.7181Z" fill="#9C78ED"/>
<path d="M16.5057 24.0532C16.8343 24.0532 17.1052 23.7882 17.1052 23.4541V20.8213C17.1052 20.4929 16.8401 20.2222 16.5057 20.2222C16.1772 20.2222 15.9062 20.4872 15.9062 20.8213V23.4541C15.9062 23.7882 16.1772 24.0532 16.5057 24.0532Z" fill="#7846D1"/>
<path d="M16.5057 28.662C16.8343 28.662 17.1052 28.397 17.1052 28.0628V25.4301C17.1052 25.1017 16.8401 24.8309 16.5057 24.8309C16.1772 24.8309 15.9062 25.096 15.9062 25.4301V28.0628C15.9062 28.3912 16.1772 28.662 16.5057 28.662Z" fill="#7846D1"/>
<path d="M12.8109 25.0417H15.1742C15.5028 25.0417 15.7737 24.7767 15.7737 24.4426C15.7737 24.1142 15.5086 23.8434 15.1742 23.8434H12.8109C12.4823 23.8434 12.2114 24.1084 12.2114 24.4426C12.2114 24.7709 12.4823 25.0417 12.8109 25.0417Z" fill="#7846D1"/>
<path d="M17.8373 25.0417H20.2006C20.5292 25.0417 20.8001 24.7767 20.8001 24.4426C20.8001 24.1142 20.5349 23.8434 20.2006 23.8434H17.8373C17.5087 23.8434 17.2378 24.1084 17.2378 24.4426C17.2378 24.7709 17.5087 25.0417 17.8373 25.0417Z" fill="#7846D1"/>
<path d="M30.2648 3.82526C30.5933 3.82526 30.8642 3.56026 30.8642 3.22612V0.599137C30.8585 0.265003 30.5933 0 30.2648 0C29.9362 0 29.6653 0.265003 29.6653 0.599137V3.22612C29.6653 3.56026 29.9362 3.82526 30.2648 3.82526Z" fill="#5B23A9"/>
<path d="M30.2648 8.42696C30.5933 8.42696 30.8642 8.16196 30.8642 7.82782V5.20084C30.8642 4.87246 30.5991 4.6017 30.2648 4.6017C29.9362 4.6017 29.6653 4.8667 29.6653 5.20084V7.83359C29.6653 8.16196 29.9362 8.42696 30.2648 8.42696Z" fill="#5B23A9"/>
<path d="M26.5699 4.80863H28.9333C29.2618 4.80863 29.5327 4.54362 29.5327 4.20949C29.5327 3.87535 29.2676 3.61035 28.9333 3.61035H26.5699C26.2414 3.61035 25.9705 3.87535 25.9705 4.20949C25.9705 4.54362 26.2356 4.80863 26.5699 4.80863Z" fill="#5B23A9"/>
<path d="M31.5963 4.80863H33.9596C34.2882 4.80863 34.5591 4.54362 34.5591 4.20949C34.5591 3.87535 34.294 3.61035 33.9596 3.61035H31.5963C31.2677 3.61035 30.9968 3.87535 30.9968 4.20949C30.9968 4.54362 31.262 4.80863 31.5963 4.80863Z" fill="#5B23A9"/>
<path d="M186.538 8.25527V19.8405C186.538 21.3729 185.293 22.6115 183.766 22.6115H162.721L156.369 24.8871C155.717 25.1233 155.089 24.4781 155.342 23.8328L157.746 17.6283V8.25527C157.746 6.72286 158.991 5.48426 160.525 5.48426H183.772C185.293 5.4785 186.538 6.72286 186.538 8.25527Z" fill="#9C78ED"/>
<g opacity="0.5">
<path d="M182.1 11.5324H162.795C162.375 11.5324 162.029 11.1925 162.029 10.7662C162.029 10.3457 162.369 10 162.795 10H182.1C182.521 10 182.866 10.3399 182.866 10.7662C182.866 11.1868 182.526 11.5324 182.1 11.5324Z" fill="#E0D5F8"/>
<path d="M182.1 14.6144H162.795C162.375 14.6144 162.029 14.2745 162.029 13.8482C162.029 13.4277 162.369 13.082 162.795 13.082H182.1C182.521 13.082 182.866 13.4219 182.866 13.8482C182.866 14.2688 182.526 14.6144 182.1 14.6144Z" fill="#E0D5F8"/>
<path d="M182.1 17.6965H162.795C162.375 17.6965 162.029 17.3566 162.029 16.9303C162.029 16.5097 162.369 16.164 162.795 16.164H182.1C182.521 16.164 182.866 16.5039 182.866 16.9303C182.866 17.3508 182.526 17.6965 182.1 17.6965Z" fill="#E0D5F8"/>
</g>
<path d="M248.613 182.264V182.679C248.613 185.064 246.677 187.005 244.285 187.005H19.8087C17.4165 187.005 15.4797 185.07 15.4797 182.679V182.264C15.4797 179.879 17.4165 177.938 19.8087 177.938H244.285C246.677 177.938 248.613 179.873 248.613 182.264Z" fill="#5B23A9"/>
<path d="M248.613 182.264V182.472H15.4797V182.264C15.4797 179.879 17.4165 177.938 19.8087 177.938H244.285C246.677 177.938 248.613 179.873 248.613 182.264Z" fill="#7846D1"/>
</g>
<defs>
<clipPath id="clip0_313_2810">
<rect width="266.485" height="187" fill="white"/>
</clipPath>
</defs>
</svg>
